<?xml version="1.0" standalone="no"?>
<!DOCTYPE svg PUBLIC "-//W3C//DTD SVG 20010904//EN"
 "http://www.w3.org/TR/2001/REC-SVG-20010904/DTD/svg10.dtd">
<svg version="1.0" xmlns="http://www.w3.org/2000/svg"
 width="704.000000pt" height="125.000000pt" viewBox="0 0 704.000000 125.000000"
 preserveAspectRatio="xMidYMid meet">

<g transform="translate(0.000000,125.000000) scale(0.100000,-0.100000)"
fill="#000000" stroke="none">
<path d="M455 1240 c-168 -34 -317 -152 -394 -314 -46 -96 -61 -160 -61 -264
0 -281 193 -515 469 -569 110 -22 213 -8 317 41 81 38 127 77 228 191 39 44
73 80 77 80 3 0 38 -38 77 -84 131 -154 247 -220 407 -228 82 -5 93 -3 125 19
107 71 99 233 -14 287 -23 12 -57 21 -75 21 -18 0 -54 9 -81 21 -45 19 -105
80 -209 211 -12 16 -4 28 69 113 102 119 124 134 207 146 118 18 173 74 173
177 0 54 -24 100 -72 135 -59 44 -214 27 -331 -36 -63 -33 -136 -99 -225 -202
l-52 -60 -47 55 c-134 157 -222 222 -349 255 -62 16 -172 18 -239 5z m205
-348 c29 -14 210 -206 210 -222 0 -3 -38 -51 -86 -107 -97 -116 -139 -143
-222 -143 -63 0 -106 17 -156 60 -57 51 -80 102 -80 185 -1 129 72 216 209
248 30 8 85 -2 125 -21z"/>
<path d="M4542 1128 l3 -63 60 0 60 0 3 63 3 62 -66 0 -66 0 3 -62z"/>
<path d="M2605 1166 c-180 -45 -298 -201 -309 -410 -10 -201 93 -384 252 -448
48 -19 75 -23 177 -23 109 0 125 2 177 27 144 67 231 202 245 378 14 193 -79
376 -230 449 -83 40 -213 51 -312 27z m261 -129 c124 -63 186 -206 163 -375
-15 -106 -76 -198 -164 -245 -34 -19 -56 -22 -145 -22 -96 0 -109 2 -151 27
-57 34 -105 88 -132 147 -25 55 -35 205 -18 266 18 69 72 147 125 183 66 44
98 52 191 48 63 -2 91 -8 131 -29z"/>
<path d="M6267 1157 c4 -8 77 -107 161 -220 100 -134 151 -211 146 -219 -7
-12 -282 -384 -307 -415 -7 -10 6 -13 59 -13 l69 0 124 175 c97 137 127 173
136 163 6 -7 64 -86 129 -176 l117 -162 71 0 c55 0 68 3 61 13 -92 117 -313
419 -313 427 0 5 70 103 155 217 85 114 155 211 155 215 0 4 -29 8 -64 8 l-64
0 -123 -174 c-68 -96 -127 -173 -130 -170 -4 2 -62 80 -128 174 l-122 170 -70
0 c-56 0 -68 -3 -62 -13z"/>
<path d="M4113 958 c-62 -63 -113 -117 -113 -121 0 -4 24 -7 54 -7 l54 0 4
-217 c3 -197 5 -222 24 -257 28 -54 73 -76 154 -76 93 0 114 14 118 74 3 47 2
48 -20 42 -13 -4 -44 -10 -69 -13 -39 -4 -50 -2 -68 16 -20 20 -21 31 -21 226
l0 204 88 3 87 3 3 48 3 47 -90 0 -90 0 -3 70 -3 70 -112 -112z"/>
<path d="M3580 941 c-55 -13 -85 -27 -123 -61 l-35 -30 -7 40 -7 40 -49 0 -49
0 0 -465 0 -465 55 0 55 0 0 180 c0 99 4 180 9 180 5 0 15 -7 22 -17 28 -34
111 -63 179 -63 85 0 150 30 211 98 56 61 81 134 81 231 0 115 -23 174 -95
246 -76 75 -161 105 -247 86z m135 -134 c24 -14 50 -40 65 -67 21 -38 25 -58
25 -130 0 -75 -3 -91 -27 -132 -64 -107 -228 -120 -325 -26 l-33 32 0 128 c0
128 0 129 28 154 49 46 92 63 162 63 49 1 75 -5 105 -22z"/>
<path d="M5069 940 c-95 -16 -177 -79 -220 -168 -34 -72 -39 -216 -9 -296 26
-68 86 -138 145 -169 61 -32 192 -36 266 -8 117 44 189 162 189 310 0 107 -22
171 -82 236 -73 80 -176 114 -289 95z m110 -110 c51 -14 97 -50 123 -95 17
-31 22 -56 23 -115 0 -94 -7 -121 -47 -165 -43 -50 -81 -67 -148 -67 -67 0
-105 17 -148 67 -40 44 -47 71 -47 165 1 60 6 83 25 118 44 78 135 116 219 92z"/>
<path d="M5883 940 c-52 -11 -93 -32 -137 -71 l-35 -30 -6 46 -7 45 -54 0 -54
0 0 -320 0 -320 60 0 60 0 0 217 0 216 40 38 c57 54 96 72 158 72 64 0 101
-23 119 -74 8 -22 12 -110 12 -251 l1 -218 55 0 55 0 0 234 c0 264 -6 295 -67
358 -51 52 -123 73 -200 58z"/>
<path d="M4550 610 l0 -320 55 0 55 0 0 320 0 320 -55 0 -55 0 0 -320z"/>
</g>
</svg>
